<?xml version="1.0" encoding="utf-8"?>
<!-- Generator: Adobe Illustrator 16.0.0, SVG Export Plug-In . SVG Version: 6.00 Build 0)  -->
<!DOCTYPE svg PUBLIC "-//W3C//DTD SVG 1.1//EN" "http://www.w3.org/Graphics/SVG/1.1/DTD/svg11.dtd">
<svg version="1.1" xmlns="http://www.w3.org/2000/svg" xmlns:xlink="http://www.w3.org/1999/xlink" x="0px" y="0px" width="300px"
	 height="300px" viewBox="0 0 300 300" enable-background="new 0 0 300 300" xml:space="preserve">
<g id="Fusée" display="none">
	<g display="inline">
		<path fill="#D52B1E" d="M123.211,135.296c0,0-33.023-7.433-43.185,43.008c11.612-10.163,29.756-11.792,29.756-11.792
			C109.782,166.512,114.561,152.556,123.211,135.296z"/>
		<path fill="#D52B1E" d="M138.583,191.737c0,0-0.045,18.218-9.155,30.673c49.368-14.526,39.081-46.772,39.081-46.772
			C152.069,185.763,138.583,191.737,138.583,191.737z"/>
		<path fill="#D52B1E" d="M103.458,201.042c-3.517-13.995,13.045-21.186,13.045-21.186c-12.605-0.881-25.208,7.62-29.9,17.877
			C81.915,207.995,80.45,225,80.45,225s17.862-2.22,27.673-7.795c9.811-5.558,17.182-18.855,15.208-31.34
			C123.331,185.865,117.09,204.853,103.458,201.042z"/>
		<path fill="#D52B1E" d="M219.509,75.029c0,0-43.501-1.958-66.362,26.347c-22.861,28.305-36.469,68.04-36.469,68.04l17.448,16.352
			c0,0,38.398-17.019,64.602-42.26C224.931,118.266,219.509,75.029,219.509,75.029z M183.174,128.772
			c-7.865,0-14.242-6.376-14.242-14.242c0-7.866,6.377-14.243,14.242-14.243c7.866,0,14.243,6.376,14.243,14.243
			C197.417,122.396,191.04,128.772,183.174,128.772z"/>
	</g>
</g>
<g id="Patte" display="none">
	<g display="inline">
		<path fill-rule="evenodd" clip-rule="evenodd" fill="#D52B1E" d="M117.916,196.009c-10.846-26.977-2.971-44.264,14.634-58.617
			c5.41-4.416,11.068-9.167,18.108-3.881c6.331,4.748,6.457,11.784,3.833,18.576c-4.321,11.194-7.858,22.369-7.781,34.642
			c0.063,10.06,7.102,24.898-9.537,26.938C123.82,215.307,120.464,201.55,117.916,196.009z"/>
		<path fill-rule="evenodd" clip-rule="evenodd" fill="#D52B1E" d="M157.884,203.831c8.527-7.016,29.453-1.834,37.555,3.846
			c7.975,5.592,2.722,15.104-3.085,19.605c-10.14,7.876-29.609,0.165-35.954-8.283C151.354,212.292,152.073,208.563,157.884,203.831
			z"/>
		<path fill-rule="evenodd" clip-rule="evenodd" fill="#D52B1E" d="M170.444,166.94c7.107-4.669,42.414-6.026,41.884,10.961
			c-0.41,13.132-0.978,24.471-13.451,23.337c-20.721-1.885-30.048-1.701-38.57-12.177
			C154.569,182.007,159.196,173.22,170.444,166.94z"/>
		<path fill-rule="evenodd" clip-rule="evenodd" fill="#D52B1E" d="M177.624,127.637c12.967-3.947,29.031-4.788,33.727,6.009
			c5.67,13.04,5.287,27.17-5.103,27.781c-19.277,1.134-37.932-0.703-43.004-12.106C159.41,140.699,163.701,134.582,177.624,127.637z
			"/>
		<path fill-rule="evenodd" clip-rule="evenodd" fill="#D52B1E" d="M181.756,82.245c3.064,11.965-2.3,40.154-15.288,45.572
			c-8.683,3.622-17.028-2.17-19.248-10.813c-2.895-11.285,8.052-42.284,18.021-46.544C174.584,66.459,178.442,74.98,181.756,82.245z
			"/>
		<path fill-rule="evenodd" clip-rule="evenodd" fill="#D52B1E" d="M112.672,206.755l-17.451,2.835
			c-13.607-7.37-12.916-51.15-2.144-58.521l18.268-2.144C98.624,163.128,103.159,192.043,112.672,206.755z"/>
	</g>
</g>
<g id="Rouages" display="none">
	<g display="inline">
		<path fill="#D52B1E" d="M131.583,163.187l5.636-2.279c0,0,12.431,5.296,12.908,4.831l7.151-6.997
			c0.5-0.488-5.198-12.432-5.198-12.432l2.317-5.51c0,0,12.633-4.87,12.633-5.535v-9.893c0.003-0.682-12.646-5.177-12.646-5.177
			l-2.324-5.521c0,0,5.405-12.192,4.926-12.662l-7.154-6.987c-0.5-0.483-12.695,5.083-12.695,5.083l-5.63-2.272
			c0,0-4.97-12.359-5.653-12.359h-10.101c-0.698,0-5.302,12.387-5.302,12.387l-5.616,2.279c0,0-12.454-5.293-12.935-4.82
			l-7.144,6.997c-0.496,0.478,5.193,12.428,5.193,12.428l-2.323,5.514c0,0-12.627,4.862-12.627,5.519v9.896
			c0,0.691,12.657,5.201,12.657,5.201l2.321,5.502c0,0-5.403,12.185-4.929,12.657l7.153,6.999c0.482,0.476,12.688-5.09,12.688-5.09
			l5.633,2.281c0,0,4.971,12.35,5.658,12.35h10.1C126.979,175.575,131.583,163.187,131.583,163.187z M100.407,130.518
			c0-11.111,9.26-20.153,20.609-20.153c11.369,0.004,20.61,9.042,20.61,20.153c0,11.119-9.246,20.175-20.61,20.175
			C109.667,150.692,100.407,141.636,100.407,130.518z"/>
		<path fill="#D52B1E" d="M217.467,100.416l-0.164-4.653c0,0,7.07-7.563,6.859-8.027l-3.161-6.982
			c-0.223-0.488-10.312,0.485-10.312,0.485l-3.36-3.112c0,0-0.195-10.37-0.674-10.544l-7.123-2.592
			c-0.488-0.182-7.04,7.748-7.04,7.748l-4.583,0.227c0,0-7.361-7.086-7.824-6.865l-6.904,3.32
			c-0.479,0.233,0.334,10.469,0.334,10.469l-3.113,3.458c0,0-10.198,0.34-10.376,0.832l-2.646,7.269
			c-0.184,0.504,7.527,7.064,7.527,7.064l0.169,4.64c0,0-7.073,7.577-6.86,8.048l3.166,6.974c0.213,0.483,10.308-0.481,10.308-0.481
			l3.36,3.119c0,0,0.19,10.362,0.663,10.536l7.124,2.593c0.498,0.18,7.061-7.75,7.061-7.75l4.57-0.228c0,0,7.355,7.082,7.82,6.864
			l6.911-3.316c0.47-0.222-0.341-10.466-0.341-10.466l3.12-3.458c0,0,10.191-0.341,10.372-0.836l2.647-7.271
			C225.179,106.977,217.467,100.416,217.467,100.416z M205.704,104.75c-2.975,8.169-11.92,12.461-19.922,9.548
			c-8.001-2.911-12.083-11.945-9.107-20.116c2.981-8.183,11.907-12.467,19.906-9.556C204.584,87.54,208.681,96.568,205.704,104.75z"
			/>
		<path fill="#D52B1E" d="M183.836,193.866l-2.65-7.018c-0.184-0.487-10.238-0.568-10.238-0.568l-3.107-3.332
			c0,0,0.541-9.974,0.074-10.189l-6.864-3.203c-0.474-0.219-7.53,6.74-7.53,6.74l-4.54-0.229c0,0-6.788-7.547-7.264-7.378
			l-7.074,2.491c-0.487,0.166-0.409,10.095-0.409,10.095l-3.327,3.011c0,0-10.125-0.696-10.332-0.249l-3.137,6.725
			c-0.219,0.47,6.957,7.55,6.957,7.55l-0.167,4.473c0,0-7.535,6.571-7.362,7.043l2.643,7.024c0.177,0.476,10.237,0.563,10.237,0.563
			l3.108,3.334c0,0-0.537,9.972-0.07,10.189l6.865,3.2c0.475,0.223,7.53-6.741,7.53-6.741l4.553,0.238c0,0,6.774,7.539,7.245,7.375
			l7.079-2.488c0.495-0.174,0.407-10.099,0.407-10.099l3.322-3.012c0,0,10.129,0.693,10.34,0.241l3.137-6.725
			c0.217-0.462-6.956-7.525-6.956-7.525l0.171-4.492C176.475,200.91,184.014,194.34,183.836,193.866z M164.359,208.374
			c-3.524,7.557-12.68,10.783-20.404,7.181c-7.714-3.598-11.139-12.688-7.615-20.246c3.522-7.552,12.682-10.763,20.397-7.165
			C164.465,191.749,167.883,200.822,164.359,208.374z"/>
	</g>
</g>
<g id="Plume" display="none">
	<path display="inline" fill="#D52B1E" d="M78,232.074c0,0,21.383-68.574,92.234-126.021c-25.213,7.34-64.979,62.531-75.83,82.32
		c0,0,8.273-48.622,46.787-88.384C164.5,75.925,206,66.925,222,66.925c-1.5,20-12.724,40.617-12.724,40.617
		s-13.829,5.723-42.233,15.298c27.957,0.085,38.34-3.383,38.34-3.383c-9.894,28.085-37.194,50.518-55.83,60
		c-21.553,10.969-49.021,21.256-49.021,21.256s-9.702,17.275-15.127,24.297C79.979,232.031,78,232.074,78,232.074z"/>
</g>
<g id="Test" display="none">
	<path display="inline" fill-rule="evenodd" clip-rule="evenodd" fill="#D52B1E" d="M122.9,202.97
		c3.527,5.27,105.547-106.139,105.547-106.139L124.9,170.397c-16.973-17.158-34.751-28.565-34.751-28.565
		c-5.221-2.593-22.721,9.407-17.701,13.927C72.448,155.76,118.928,206.739,122.9,202.97z"/>
</g>
<g id="Certified">
	<g>
		<path fill="#D52B1E" d="M199.364,191.841c0,6.717-5.437,12.159-12.153,12.159h-75.699c-6.711,0-12.148-5.442-12.148-12.159V85.127
			c0-6.712,5.437-12.154,12.148-12.154h75.699c6.717,0,12.153,5.442,12.153,12.154V191.841z"/>
		<g>
			<circle fill="#D52B1E" cx="173.496" cy="183.658" r="17.858"/>
			<g>
				<path fill="#FFFFFF" d="M189.797,180.912c1.265,9.232-4.544,17.099-13.555,19.047c-9.099,1.968-17.214-5.075-19.048-13.555
					c-1.968-9.098,5.076-17.214,13.555-19.047C179.848,165.39,187.963,172.433,189.797,180.912c0.363,1.68,2.933,0.967,2.57-0.709
					c-2.286-10.565-11.714-16.869-22.327-15.416c-10.699,1.465-16.783,12.334-15.416,22.326c1.465,10.7,12.336,16.784,22.327,15.416
					c10.699-1.465,16.784-12.334,15.416-22.326C192.135,178.507,189.567,179.231,189.797,180.912z"/>
			</g>
		</g>
		<g>
			<polygon fill="#D52B1E" points="200.636,206.515 193.391,207.326 190.847,214.726 169.596,189.398 179.383,181.186 			"/>
			<g>
				<path fill="#FFFFFF" d="M200.636,205.715c-2.415,0.271-4.83,0.541-7.245,0.812c-0.378,0.043-0.645,0.218-0.771,0.587
					c-0.848,2.467-1.695,4.934-2.544,7.399c0.446-0.117,0.892-0.235,1.337-0.353c-4.385-5.226-8.77-10.451-13.154-15.677
					c-2.417-2.881-4.835-5.763-7.252-8.644c-1.248-1.487-0.395-0.254-0.57-0.106c1.539-1.292,3.079-2.584,4.619-3.876
					c1.433-1.202,2.866-2.405,4.299-3.607c0.828-0.694-0.922-0.959,0.059,0.21c2.296,2.735,4.591,5.472,6.887,8.207
					c4.59,5.471,9.181,10.942,13.771,16.413c0.664,0.791,1.789-0.347,1.131-1.131c-7.084-8.443-14.169-16.886-21.253-25.329
					c-0.298-0.354-0.82-0.261-1.131,0c-3.263,2.737-6.524,5.476-9.787,8.213c-0.354,0.298-0.261,0.82,0,1.131
					c7.084,8.442,14.167,16.885,21.251,25.327c0.414,0.493,1.158,0.167,1.337-0.353c0.831-2.418,1.662-4.836,2.493-7.254
					c-0.722,0.401-0.751,0.525-0.089,0.37c0.832-0.093,1.665-0.187,2.498-0.279c1.372-0.154,2.743-0.308,4.115-0.461
					C201.648,207.201,201.66,205.601,200.636,205.715z"/>
			</g>
		</g>
		<g>
			<polygon fill="#D52B1E" points="157.991,213.73 165.304,211.62 169.997,218.099 181.305,187.03 169.299,182.658 			"/>
			<g>
				<path fill="#FFFFFF" d="M158.204,214.502c2.39-0.69,4.778-1.38,7.168-2.069c-0.653,0.188-0.869-0.561-0.025,0.604
					c0.538,0.742,1.075,1.484,1.613,2.227c0.782,1.08,1.564,2.16,2.347,3.239c0.416,0.574,1.214,0.488,1.462-0.19
					c3.769-10.356,7.538-20.713,11.308-31.068c0.157-0.434-0.176-0.845-0.559-0.984c-4.002-1.457-8.004-2.914-12.006-4.372
					c-0.434-0.157-0.845,0.176-0.984,0.559c-3.769,10.357-7.538,20.715-11.308,31.072c-0.354,0.972,1.192,1.387,1.543,0.426
					c2.333-6.411,4.666-12.822,6.999-19.233c1.286-3.535,2.572-7.069,3.858-10.604c0.663-1.821,0.025-0.473-0.197-0.554
					c1.889,0.688,3.777,1.376,5.666,2.063c1.758,0.641,3.516,1.28,5.273,1.921c1.017,0.369,0.377-1.284-0.146,0.151
					c-1.221,3.355-2.442,6.711-3.663,10.066c-2.442,6.711-4.885,13.422-7.328,20.132c0.487-0.063,0.975-0.127,1.462-0.19
					c-1.564-2.16-3.129-4.319-4.693-6.479c-0.211-0.292-0.533-0.475-0.903-0.368c-2.438,0.704-4.875,1.407-7.313,2.11
					C156.79,213.245,157.211,214.788,158.204,214.502z"/>
			</g>
		</g>
		<g>
			<circle fill="#D52B1E" cx="173.496" cy="183.659" r="17.059"/>
		</g>
		<g>
			<g>
				<path fill="#FFFFFF" d="M185.114,156.615c-23.333,0-46.667,0-70,0c-1.612,0-1.612,2.5,0,2.5c23.333,0,46.667,0,70,0
					C186.727,159.115,186.727,156.615,185.114,156.615L185.114,156.615z"/>
			</g>
		</g>
		<g>
			<g>
				<path fill="#FFFFFF" d="M185.114,141.993c-23.333,0-46.667,0-70,0c-1.612,0-1.612,2.5,0,2.5c23.333,0,46.667,0,70,0
					C186.727,144.493,186.727,141.993,185.114,141.993L185.114,141.993z"/>
			</g>
		</g>
		<g>
			<g>
				<path fill="#FFFFFF" d="M185.114,126.372c-23.333,0-46.667,0-70,0c-1.612,0-1.612,2.5,0,2.5c23.333,0,46.667,0,70,0
					C186.727,128.872,186.727,126.372,185.114,126.372L185.114,126.372z"/>
			</g>
		</g>
		<g>
			<g>
				<path fill="#FFFFFF" d="M185.114,110.75c-23.333,0-46.667,0-70,0c-1.612,0-1.612,2.5,0,2.5c23.333,0,46.667,0,70,0
					C186.727,113.25,186.727,110.75,185.114,110.75L185.114,110.75z"/>
			</g>
		</g>
		<g id="Title">
			<g>
				<path fill="#FFFFFF" d="M170.114,93.25c-13.333,0-26.667,0-40,0c-1.612,0-1.612,2.5,0,2.5c13.333,0,26.667,0,40,0
					C171.727,95.75,171.727,93.25,170.114,93.25L170.114,93.25z"/>
			</g>
		</g>
		<g id="Title_1_">
			<g>
				<path fill="#FFFFFF" d="M145.614,177.75c-10.333,0-20.667,0-31,0c-1.612,0-1.612,2.5,0,2.5c10.333,0,20.667,0,31,0
					C147.227,180.25,147.227,177.75,145.614,177.75L145.614,177.75z"/>
			</g>
		</g>
	</g>
</g>
</svg>
