<?xml version="1.0" encoding="utf-8"?>
<!-- Generator: Adobe Illustrator 16.0.0, SVG Export Plug-In . SVG Version: 6.00 Build 0)  -->
<!DOCTYPE svg PUBLIC "-//W3C//DTD SVG 1.1//EN" "http://www.w3.org/Graphics/SVG/1.1/DTD/svg11.dtd">
<svg version="1.1" xmlns="http://www.w3.org/2000/svg" xmlns:xlink="http://www.w3.org/1999/xlink" x="0px" y="0px" width="300px"
	 height="300px" viewBox="0 0 300 300" enable-background="new 0 0 300 300" xml:space="preserve">
<g id="Fusée" display="none">
	<g display="inline">
		<path fill="#D52B1E" d="M123.211,135.296c0,0-33.023-7.433-43.185,43.008c11.612-10.163,29.756-11.792,29.756-11.792
			C109.782,166.512,114.561,152.556,123.211,135.296z"/>
		<path fill="#D52B1E" d="M138.583,191.737c0,0-0.045,18.218-9.155,30.673c49.368-14.526,39.081-46.772,39.081-46.772
			C152.069,185.763,138.583,191.737,138.583,191.737z"/>
		<path fill="#D52B1E" d="M103.458,201.042c-3.517-13.995,13.045-21.186,13.045-21.186c-12.605-0.881-25.208,7.62-29.9,17.877
			C81.915,207.995,80.45,225,80.45,225s17.862-2.22,27.673-7.795c9.811-5.558,17.182-18.855,15.208-31.34
			C123.331,185.865,117.09,204.853,103.458,201.042z"/>
		<path fill="#D52B1E" d="M219.509,75.029c0,0-43.501-1.958-66.362,26.347c-22.861,28.305-36.469,68.04-36.469,68.04l17.448,16.352
			c0,0,38.398-17.019,64.602-42.26C224.931,118.266,219.509,75.029,219.509,75.029z M183.174,128.772
			c-7.865,0-14.242-6.376-14.242-14.242c0-7.866,6.377-14.243,14.242-14.243c7.866,0,14.243,6.376,14.243,14.243
			C197.417,122.396,191.04,128.772,183.174,128.772z"/>
	</g>
</g>
<g id="Patte" display="none">
	<g display="inline">
		<path fill-rule="evenodd" clip-rule="evenodd" fill="#D52B1E" d="M126.322,183.954c-8.004-19.908-2.193-32.666,10.8-43.259
			c3.993-3.259,8.168-6.766,13.364-2.864c4.672,3.504,4.765,8.696,2.829,13.709c-3.189,8.262-5.799,16.509-5.742,25.565
			c0.046,7.424,5.241,18.375-7.039,19.88C130.679,198.196,128.202,188.044,126.322,183.954z"/>
		<path fill-rule="evenodd" clip-rule="evenodd" fill="#D52B1E" d="M155.818,189.728c6.293-5.178,21.736-1.354,27.715,2.838
			c5.886,4.127,2.009,11.146-2.276,14.469c-7.483,5.813-21.852,0.122-26.534-6.113C150.999,195.972,151.53,193.22,155.818,189.728z"
			/>
		<path fill-rule="evenodd" clip-rule="evenodd" fill="#D52B1E" d="M165.088,162.502c5.245-3.445,31.302-4.447,30.91,8.089
			c-0.303,9.691-0.722,18.06-9.927,17.223c-15.292-1.391-22.176-1.255-28.465-8.986
			C153.372,173.621,156.787,167.136,165.088,162.502z"/>
		<path fill-rule="evenodd" clip-rule="evenodd" fill="#D52B1E" d="M170.387,133.496c9.569-2.913,21.425-3.533,24.89,4.435
			c4.185,9.624,3.902,20.051-3.766,20.502c-14.227,0.837-27.993-0.519-31.736-8.935
			C156.944,143.136,160.111,138.621,170.387,133.496z"/>
		<path fill-rule="evenodd" clip-rule="evenodd" fill="#D52B1E" d="M173.436,99.997c2.262,8.83-1.697,29.634-11.282,33.632
			c-6.408,2.673-12.567-1.602-14.205-7.98c-2.137-8.328,5.942-31.205,13.299-34.35C168.143,88.347,170.99,94.635,173.436,99.997z"/>
		<path fill-rule="evenodd" clip-rule="evenodd" fill="#D52B1E" d="M122.452,191.885l-12.878,2.093
			c-10.042-5.439-9.532-37.749-1.582-43.188l13.481-1.582C112.084,159.688,115.431,181.027,122.452,191.885z"/>
	</g>
</g>
<g id="Rouages" display="none">
	<g display="inline">
		<path fill="#D52B1E" d="M133.187,161.892l4.899-1.981c0,0,10.806,4.604,11.221,4.199l6.217-6.082
			c0.435-0.425-4.519-10.807-4.519-10.807l2.014-4.79c0,0,10.981-4.233,10.981-4.812v-8.6c0.003-0.593-10.993-4.5-10.993-4.5
			l-2.021-4.8c0,0,4.699-10.599,4.282-11.007l-6.219-6.073c-0.435-0.42-11.035,4.418-11.035,4.418l-4.895-1.976
			c0,0-4.32-10.743-4.914-10.743h-8.78c-0.606,0-4.608,10.768-4.608,10.768l-4.882,1.981c0,0-10.826-4.602-11.244-4.19l-6.21,6.082
			c-0.431,0.415,4.515,10.804,4.515,10.804l-2.02,4.793c0,0-10.977,4.227-10.977,4.797v8.603c0,0.601,11.003,4.521,11.003,4.521
			l2.018,4.783c0,0-4.697,10.592-4.285,11.003l6.218,6.084c0.419,0.413,11.029-4.425,11.029-4.425l4.896,1.983
			c0,0,4.321,10.735,4.918,10.735h8.779C129.185,172.661,133.187,161.892,133.187,161.892z M106.086,133.493
			c0-9.659,8.05-17.519,17.915-17.519c9.883,0.004,17.916,7.859,17.916,17.519c0,9.665-8.037,17.537-17.916,17.537
			C114.136,151.03,106.086,143.158,106.086,133.493z"/>
		<path fill="#D52B1E" d="M207.844,107.326l-0.143-4.045c0,0,6.146-6.574,5.963-6.978l-2.748-6.069
			c-0.193-0.424-8.964,0.422-8.964,0.422l-2.921-2.705c0,0-0.17-9.014-0.586-9.166l-6.191-2.253c-0.425-0.158-6.12,6.735-6.12,6.735
			l-3.983,0.197c0,0-6.399-6.16-6.802-5.967l-6.002,2.886c-0.416,0.203,0.29,9.101,0.29,9.101l-2.706,3.006
			c0,0-8.865,0.295-9.02,0.723l-2.301,6.319c-0.159,0.438,6.544,6.141,6.544,6.141l0.146,4.033c0,0-6.148,6.586-5.964,6.996
			l2.753,6.063c0.185,0.42,8.96-0.418,8.96-0.418l2.921,2.711c0,0,0.166,9.008,0.576,9.158l6.193,2.254
			c0.433,0.156,6.138-6.737,6.138-6.737l3.973-0.198c0,0,6.394,6.156,6.798,5.967l6.008-2.883c0.408-0.192-0.296-9.098-0.296-9.098
			l2.712-3.006c0,0,8.859-0.297,9.017-0.727l2.301-6.32C214.548,113.029,207.844,107.326,207.844,107.326z M197.619,111.094
			c-2.586,7.102-10.362,10.832-17.318,8.3c-6.955-2.53-10.503-10.384-7.917-17.486c2.592-7.113,10.352-10.837,17.305-8.307
			C196.646,96.133,200.206,103.981,197.619,111.094z"/>
		<path fill="#D52B1E" d="M178.609,188.561l-2.304-6.1c-0.16-0.424-8.9-0.494-8.9-0.494l-2.701-2.896c0,0,0.471-8.67,0.064-8.857
			l-5.967-2.785c-0.412-0.189-6.546,5.859-6.546,5.859l-3.946-0.199c0,0-5.901-6.561-6.314-6.414l-6.149,2.166
			c-0.423,0.145-0.356,8.775-0.356,8.775l-2.892,2.617c0,0-8.801-0.605-8.981-0.217l-2.727,5.846
			c-0.19,0.408,6.047,6.563,6.047,6.563l-0.146,3.889c0,0-6.55,5.712-6.4,6.122l2.298,6.106c0.154,0.413,8.899,0.489,8.899,0.489
			l2.702,2.898c0,0-0.467,8.668-0.061,8.857l5.967,2.782c0.413,0.193,6.546-5.86,6.546-5.86l3.958,0.207
			c0,0,5.889,6.554,6.298,6.411l6.153-2.163c0.431-0.151,0.354-8.778,0.354-8.778l2.888-2.618c0,0,8.805,0.603,8.988,0.21
			l2.727-5.846c0.188-0.401-6.047-6.542-6.047-6.542l0.148-3.905C172.21,194.684,178.764,188.973,178.609,188.561z M161.679,201.172
			c-3.063,6.569-11.022,9.374-17.737,6.242c-6.706-3.127-9.683-11.029-6.619-17.6c3.062-6.564,11.024-9.355,17.731-6.229
			C161.771,186.721,164.741,194.607,161.679,201.172z"/>
	</g>
</g>
<g id="Plume">
	<path fill="#D52B1E" d="M78,232.074c0,0,21.383-68.574,92.234-126.021c-25.213,7.34-64.979,62.531-75.83,82.32
		c0,0,8.273-48.622,46.787-88.384C164.5,75.925,206,66.925,222,66.925c-1.5,20-12.724,40.617-12.724,40.617
		s-13.829,5.723-42.233,15.298c27.957,0.085,38.34-3.383,38.34-3.383c-9.894,28.085-37.194,50.518-55.83,60
		c-21.553,10.969-49.021,21.256-49.021,21.256s-9.702,17.275-15.127,24.297C79.979,232.031,78,232.074,78,232.074z"/>
</g>
</svg>
