<?xml version="1.0" encoding="utf-8"?>
<!-- Generator: Adobe Illustrator 16.0.0, SVG Export Plug-In . SVG Version: 6.00 Build 0)  -->
<!DOCTYPE svg PUBLIC "-//W3C//DTD SVG 1.1//EN" "http://www.w3.org/Graphics/SVG/1.1/DTD/svg11.dtd">
<svg version="1.1" xmlns="http://www.w3.org/2000/svg" xmlns:xlink="http://www.w3.org/1999/xlink" x="0px" y="0px" width="300px"
	 height="300px" viewBox="0 0 300 300" enable-background="new 0 0 300 300" xml:space="preserve">
<g id="Calque_1">
</g>
<g id="Fusée">
	<g>
		<path fill="#D52B1E" d="M123.211,135.296c0,0-33.023-7.433-43.185,43.008c11.612-10.163,29.756-11.792,29.756-11.792
			C109.782,166.512,114.561,152.556,123.211,135.296z"/>
		<path fill="#D52B1E" d="M138.583,191.737c0,0-0.045,18.218-9.155,30.673c49.368-14.526,39.081-46.772,39.081-46.772
			C152.069,185.763,138.583,191.737,138.583,191.737z"/>
		<path fill="#D52B1E" d="M103.458,201.042c-3.517-13.995,13.045-21.186,13.045-21.186c-12.605-0.881-25.208,7.62-29.9,17.877
			C81.915,207.995,80.45,225,80.45,225s17.862-2.22,27.673-7.795c9.811-5.558,17.182-18.855,15.208-31.34
			C123.331,185.865,117.09,204.853,103.458,201.042z"/>
		<path fill="#D52B1E" d="M219.509,75.029c0,0-43.501-1.958-66.362,26.347c-22.861,28.305-36.469,68.04-36.469,68.04l17.448,16.352
			c0,0,38.398-17.019,64.602-42.26C224.931,118.266,219.509,75.029,219.509,75.029z M183.174,128.772
			c-7.865,0-14.242-6.376-14.242-14.242c0-7.866,6.377-14.243,14.242-14.243c7.866,0,14.243,6.376,14.243,14.243
			C197.417,122.396,191.04,128.772,183.174,128.772z"/>
	</g>
</g>
</svg>
